<svg xmlns="http://www.w3.org/2000/svg" viewBox="0 0 800 800">
  <defs><linearGradient id="bg" x1="0" y1="0" x2="1" y2="1"><stop stop-color="#f7f0e4"/><stop offset="1" stop-color="#ead8d2"/></linearGradient><filter id="shadow"><feDropShadow dx="0" dy="22" stdDeviation="24" flood-color="#1a1a1a" flood-opacity=".16"/></filter></defs>
  <rect width="800" height="800" fill="url(#bg)"/>
  <g filter="url(#shadow)" transform="rotate(7 400 420)">
    <path d="M190 202h420v420H190z" fill="#fff8ec" stroke="#8b1a1a" stroke-width="9"/>
    <path d="M242 254h316v316H242z" fill="none" stroke="#c9a94e" stroke-width="5"/>
    <path d="M400 258v308" stroke="#c23b22" stroke-width="9"/>
    <path d="M246 412h308" stroke="#c9a94e" stroke-width="9"/>
    <circle cx="400" cy="412" r="68" fill="none" stroke="#5a7c6f" stroke-width="13"/>
    <path d="M270 304l74 35-35 74-74-35zM492 304l74 35-35 74-74-35zM270 520l74-35 35 74-74 35zM492 520l74-35 35 74-74 35z" fill="#c23b22" opacity=".75"/>
    <path d="M400 312l38 100-38 100-38-100z" fill="#2f6f98" opacity=".62"/>
  </g>
  <text x="400" y="102" text-anchor="middle" font-family="serif" font-size="42" font-weight="700" fill="#8b1a1a">中轴线·真丝方巾</text>
  <text x="400" y="710" text-anchor="middle" font-family="serif" font-size="28" fill="#2d2d2d">Silk scarf with axis geometry</text>
</svg>
