<svg xmlns="http://www.w3.org/2000/svg" viewBox="0 0 800 800">
  <defs><linearGradient id="bg" x1="0" y1="0" x2="1" y2="1"><stop stop-color="#f7f0e4"/><stop offset="1" stop-color="#dce3d9"/></linearGradient><filter id="shadow"><feDropShadow dx="0" dy="22" stdDeviation="22" flood-color="#1a1a1a" flood-opacity=".2"/></filter></defs>
  <rect width="800" height="800" fill="url(#bg)"/>
  <g filter="url(#shadow)">
    <rect x="98" y="206" width="604" height="346" rx="8" fill="#fffaf0" stroke="#b88942" stroke-width="8"/>
    <rect x="72" y="180" width="44" height="398" rx="22" fill="#6a3424"/>
    <rect x="684" y="180" width="44" height="398" rx="22" fill="#6a3424"/>
    <path d="M400 250v260" stroke="#c23b22" stroke-width="9"/>
    <path d="M178 456c80-42 142-36 206-11s128 14 238-54" fill="none" stroke="#5a7c6f" stroke-width="18" opacity=".42"/>
    <g fill="#8b1a1a">
      <path d="M177 435h46v-72h-46z"/><path d="M260 435h58v-110h-58z"/><path d="M365 435h70v-155h-70z"/><path d="M486 435h58v-112h-58z"/><path d="M582 435h40v-70h-40z"/>
    </g>
    <path d="M158 292h484M158 508h484" stroke="#c9a94e" stroke-width="4" opacity=".5"/>
  </g>
  <text x="400" y="104" text-anchor="middle" font-family="serif" font-size="42" font-weight="700" fill="#8b1a1a">中轴线全景卷轴</text>
  <text x="400" y="690" text-anchor="middle" font-family="serif" font-size="28" fill="#2d2d2d">Yongdingmen to Bell &amp; Drum Towers</text>
</svg>
