<svg xmlns="http://www.w3.org/2000/svg" viewBox="0 0 800 800">
  <defs>
    <linearGradient id="paper" x1="0" y1="0" x2="1" y2="1"><stop stop-color="#f7f0e4"/><stop offset="1" stop-color="#e8d1a3"/></linearGradient>
    <radialGradient id="glow" cx="50%" cy="52%" r="42%"><stop stop-color="#ffe3a1"/><stop offset=".55" stop-color="#f2b94d" stop-opacity=".55"/><stop offset="1" stop-color="#f2b94d" stop-opacity="0"/></radialGradient>
    <filter id="shadow"><feDropShadow dx="0" dy="22" stdDeviation="24" flood-color="#2b1810" flood-opacity=".22"/></filter>
  </defs>
  <rect width="800" height="800" fill="url(#paper)"/>
  <circle cx="400" cy="430" r="245" fill="url(#glow)"/>
  <g filter="url(#shadow)">
    <ellipse cx="400" cy="594" rx="210" ry="34" fill="#2b1810" opacity=".15"/>
    <path d="M255 520c24-112 118-196 228-200 65-2 116 20 153 58-72-8-120 10-158 54-26 30-62 46-107 42-38-3-72 9-116 46z" fill="#fff6df" stroke="#8b1a1a" stroke-width="10"/>
    <path d="M307 372c-20-58 22-98 70-94 22 2 42 12 60 29 20-8 46-6 68 8-42 10-70 32-84 66-24-26-62-32-114-9z" fill="#c23b22"/>
    <path d="M506 375l88-44-21 80 73 30-83 20-13 78-50-64-79 18 45-64z" fill="#fff6df" stroke="#8b1a1a" stroke-width="10"/>
    <circle cx="375" cy="383" r="14" fill="#8b1a1a"/>
    <path d="M300 493c86 56 174 57 252 2" fill="none" stroke="#c9a94e" stroke-width="13" stroke-linecap="round"/>
    <rect x="286" y="548" width="228" height="48" rx="24" fill="#8b1a1a"/>
    <rect x="332" y="585" width="136" height="42" rx="8" fill="#c9a94e"/>
  </g>
  <text x="400" y="102" text-anchor="middle" font-family="serif" font-size="42" font-weight="700" fill="#8b1a1a">紫禁城·脊兽小夜灯</text>
  <text x="400" y="690" text-anchor="middle" font-family="serif" font-size="28" fill="#2d2d2d">Ceramic ridge beast lamp</text>
</svg>
