<svg xmlns="http://www.w3.org/2000/svg" viewBox="0 0 800 800">
  <defs><linearGradient id="bg" x1="0" y1="0" x2="1" y2="1"><stop stop-color="#f7f0e4"/><stop offset="1" stop-color="#dce3e0"/></linearGradient><filter id="shadow"><feDropShadow dx="0" dy="18" stdDeviation="18" flood-color="#1a1a1a" flood-opacity=".18"/></filter></defs>
  <rect width="800" height="800" fill="url(#bg)"/>
  <g filter="url(#shadow)">
    <g transform="translate(196 170)"><rect width="132" height="132" rx="26" fill="#8b1a1a"/><path d="M25 90h82l-18 20H43zM40 62h52l-10 22H50z" fill="#f1d078"/><text x="66" y="40" text-anchor="middle" font-family="serif" font-size="22" fill="#fff">宫</text></g>
    <g transform="translate(334 170)"><circle cx="66" cy="66" r="66" fill="#2f6f98"/><path d="M32 78c30-38 50-38 68 0" fill="none" stroke="#f4e6c8" stroke-width="12" stroke-linecap="round"/><text x="66" y="44" text-anchor="middle" font-family="serif" font-size="22" fill="#fff">坛</text></g>
    <g transform="translate(472 170)"><rect width="132" height="132" rx="26" fill="#5a7c6f"/><path d="M34 88h64M46 54h40" stroke="#f4e6c8" stroke-width="10" stroke-linecap="round"/><text x="66" y="40" text-anchor="middle" font-family="serif" font-size="22" fill="#fff">楼</text></g>
    <g transform="translate(196 360)"><rect width="132" height="132" rx="26" fill="#c9a94e"/><path d="M28 88h76v18H28zM44 48h44v40H44z" fill="#8b1a1a"/><text x="66" y="38" text-anchor="middle" font-family="serif" font-size="22" fill="#8b1a1a">门</text></g>
    <g transform="translate(334 360)"><rect width="132" height="132" rx="66" fill="#f4e6c8"/><path d="M32 36h68v68H32z" fill="none" stroke="#8b1a1a" stroke-width="10"/><path d="M66 36v68" stroke="#8b1a1a" stroke-width="8"/><text x="66" y="126" text-anchor="middle" font-family="serif" font-size="20" fill="#8b1a1a">桥</text></g>
    <g transform="translate(472 360)"><rect width="132" height="132" rx="26" fill="#c23b22"/><path d="M30 82c34-46 74-46 102 0" fill="none" stroke="#f4e6c8" stroke-width="12" stroke-linecap="round"/><text x="66" y="44" text-anchor="middle" font-family="serif" font-size="22" fill="#fff">轴</text></g>
  </g>
  <text x="400" y="102" text-anchor="middle" font-family="serif" font-size="42" font-weight="700" fill="#8b1a1a">中轴七景·冰箱贴套装</text>
  <text x="400" y="690" text-anchor="middle" font-family="serif" font-size="28" fill="#2d2d2d">Enamel magnet set of axis landmarks</text>
</svg>
