<svg xmlns="http://www.w3.org/2000/svg" viewBox="0 0 800 800">
  <defs><linearGradient id="bg" x1="0" y1="0" x2="1" y2="1"><stop stop-color="#f8f1e5"/><stop offset="1" stop-color="#d8e9ef"/></linearGradient><filter id="shadow"><feDropShadow dx="0" dy="22" stdDeviation="24" flood-color="#1a1a1a" flood-opacity=".2"/></filter></defs>
  <rect width="800" height="800" fill="url(#bg)"/>
  <g filter="url(#shadow)">
    <ellipse cx="400" cy="582" rx="235" ry="42" fill="#2b1810" opacity=".13"/>
    <path d="M250 394h300c-8 128-52 196-150 196s-142-68-150-196z" fill="#fffdf8" stroke="#2f6f98" stroke-width="10"/>
    <ellipse cx="400" cy="394" rx="154" ry="44" fill="#fffdf8" stroke="#2f6f98" stroke-width="10"/>
    <path d="M286 360h228l-36 44H322z" fill="#2f6f98"/>
    <path d="M318 318h164l-24 42H342z" fill="#2f6f98"/>
    <path d="M360 286h80l-14 34h-52z" fill="#c9a94e"/>
    <path d="M326 470c44 30 104 30 148 0M348 512c32 22 72 22 104 0" stroke="#2f6f98" stroke-width="8" stroke-linecap="round" opacity=".56"/>
    <path d="M248 460c-70 20-74 112 10 116" fill="none" stroke="#2f6f98" stroke-width="16" stroke-linecap="round"/>
    <path d="M552 460c70 20 74 112-10 116" fill="none" stroke="#2f6f98" stroke-width="16" stroke-linecap="round"/>
  </g>
  <text x="400" y="102" text-anchor="middle" font-family="serif" font-size="42" font-weight="700" fill="#2f6f98">天坛祈年殿·盖碗茶具</text>
  <text x="400" y="690" text-anchor="middle" font-family="serif" font-size="28" fill="#2d2d2d">Gaiwan tea set shaped like Qinian Hall</text>
</svg>
