<svg xmlns="http://www.w3.org/2000/svg" viewBox="0 0 800 800">
  <defs><linearGradient id="bg" x1="0" y1="0" x2="1" y2="1"><stop stop-color="#f7f0e4"/><stop offset="1" stop-color="#ded2bd"/></linearGradient><filter id="shadow"><feDropShadow dx="0" dy="22" stdDeviation="22" flood-color="#1a1a1a" flood-opacity=".2"/></filter></defs>
  <rect width="800" height="800" fill="url(#bg)"/>
  <g filter="url(#shadow)">
    <rect x="342" y="152" width="116" height="470" rx="52" fill="#b27a36"/>
    <rect x="368" y="184" width="64" height="402" rx="32" fill="#d0a054"/>
    <path d="M285 390c48-86 142-116 208-54 44 42 24 112-38 124-42 8-78-12-94-46-22 18-46 28-76 30z" fill="#694423"/>
    <path d="M306 400c34-34 76-44 112-24" fill="none" stroke="#f4d382" stroke-width="9" stroke-linecap="round"/>
    <circle cx="442" cy="376" r="10" fill="#f8df9b"/>
    <path d="M332 470c46 28 112 28 158-2" fill="none" stroke="#f8df9b" stroke-width="8" stroke-linecap="round"/>
    <path d="M400 620v66" stroke="#8b1a1a" stroke-width="10" stroke-linecap="round"/>
    <circle cx="400" cy="696" r="18" fill="#8b1a1a"/>
  </g>
  <text x="400" y="102" text-anchor="middle" font-family="serif" font-size="42" font-weight="700" fill="#8b1a1a">万宁桥镇水兽·铜书签</text>
  <text x="400" y="738" text-anchor="middle" font-family="serif" font-size="28" fill="#2d2d2d">Brass bookmark with water guardian</text>
</svg>
