<svg xmlns="http://www.w3.org/2000/svg" viewBox="0 0 800 800">
  <defs><linearGradient id="bg" x1="0" y1="0" x2="1" y2="1"><stop stop-color="#f7f0e4"/><stop offset="1" stop-color="#e2d3bf"/></linearGradient><filter id="shadow"><feDropShadow dx="0" dy="22" stdDeviation="24" flood-color="#1a1a1a" flood-opacity=".2"/></filter></defs>
  <rect width="800" height="800" fill="url(#bg)"/>
  <g filter="url(#shadow)">
    <path d="M210 526h380v64H210z" fill="#8d5b32"/>
    <path d="M252 396h296v130H252z" fill="#c79252"/>
    <path d="M216 396c100-72 268-72 368 0l-34 48H250z" fill="#8b1a1a"/>
    <path d="M290 334h220l32 64H258z" fill="#b77738"/>
    <path d="M320 292h160l24 44H296z" fill="#8b1a1a"/>
    <path d="M318 526v-98M400 526v-98M482 526v-98" stroke="#6f3e20" stroke-width="12"/>
    <path d="M250 590h300" stroke="#c9a94e" stroke-width="8" stroke-linecap="round"/>
    <circle cx="316" cy="466" r="14" fill="#f0c979"/><circle cx="484" cy="466" r="14" fill="#f0c979"/>
    <path d="M170 620h66v42h-66zM564 620h66v42h-66zM250 640h60v34h-60z" fill="#b77738" opacity=".75"/>
  </g>
  <text x="400" y="102" text-anchor="middle" font-family="serif" font-size="42" font-weight="700" fill="#8b1a1a">先农坛·榫卯积木模型</text>
  <text x="400" y="710" text-anchor="middle" font-family="serif" font-size="28" fill="#2d2d2d">Wooden mortise-tenon architecture kit</text>
</svg>
